<svg width="133" height="50" viewBox="0 0 133 50" fill="none" xmlns="http://www.w3.org/2000/svg">
<g clip-path="url(#clip0_2862_805)">
<path fill-rule="evenodd" clip-rule="evenodd" d="M10.6281 15.4639C10.3721 15.4639 10.3081 15.3359 10.4361 15.1439L11.7801 13.4159C11.9081 13.2239 12.2281 13.0959 12.4841 13.0959H35.3321C35.5881 13.0959 35.6521 13.2879 35.5241 13.4799L34.4361 15.1439C34.3081 15.3359 33.9881 15.5279 33.7961 15.5279L10.6281 15.4639Z" fill="white"/>
<path fill-rule="evenodd" clip-rule="evenodd" d="M0.964008 21.3519C0.708008 21.3519 0.644008 21.2239 0.772008 21.0319L2.11601 19.3039C2.24401 19.1119 2.56401 18.9839 2.82001 18.9839H32.004C32.26 18.9839 32.388 19.1759 32.324 19.3679L31.812 20.9039C31.748 21.1599 31.492 21.2879 31.236 21.2879L0.964008 21.3519Z" fill="white"/>
<path fill-rule="evenodd" clip-rule="evenodd" d="M16.4523 27.2401C16.1963 27.2401 16.1323 27.0481 16.2603 26.8561L17.1563 25.2561C17.2843 25.0641 17.5403 24.8721 17.7963 24.8721H30.5963C30.8523 24.8721 30.9803 25.0641 30.9803 25.3201L30.8523 26.8561C30.8523 27.1121 30.5963 27.3041 30.4043 27.3041L16.4523 27.2401Z" fill="white"/>
<path fill-rule="evenodd" clip-rule="evenodd" d="M82.8841 14.312C78.8521 15.336 76.1001 16.104 72.1321 17.128C71.1721 17.384 71.1081 17.448 70.2761 16.488C69.3161 15.4 68.6121 14.696 67.2681 14.056C63.2361 12.072 59.3321 12.648 55.6841 15.016C51.3321 17.832 49.0921 21.992 49.1561 27.176C49.2201 32.296 52.7401 36.52 57.7961 37.224C62.1481 37.8 65.7961 36.264 68.6761 33C69.2521 32.296 69.7641 31.528 70.4041 30.632C68.1001 30.632 65.2201 30.632 58.0521 30.632C56.7081 30.632 56.3881 29.8 56.8361 28.712C57.6681 26.728 59.2041 23.4 60.1001 21.736C60.2921 21.352 60.7401 20.712 61.7001 20.712H84.9961C84.8681 22.44 84.8681 24.168 84.6121 25.896C83.9081 30.504 82.1801 34.728 79.3641 38.44C74.7561 44.52 68.7401 48.296 61.1241 49.32C54.8521 50.152 49.0281 48.936 43.9081 45.096C39.1721 41.512 36.4841 36.776 35.7801 30.888C34.9481 23.912 36.9961 17.64 41.2201 12.136C45.7641 6.18396 51.7801 2.40796 59.1401 1.06396C65.1561 -0.0240368 70.9161 0.679963 76.1001 4.19996C79.4921 6.43996 81.9241 9.51196 83.5241 13.224C83.9081 13.8 83.6521 14.12 82.8841 14.312Z" fill="white"/>
<path d="M104.068 49.7039C98.2441 49.5759 92.9321 47.9119 88.4521 44.0719C84.6761 40.8079 82.3081 36.6479 81.5401 31.7199C80.3881 24.4879 82.3721 18.0879 86.7241 12.3919C91.3961 6.24786 97.0281 3.04786 104.644 1.70386C111.172 0.551863 117.316 1.19186 122.884 4.96786C127.94 8.42386 131.076 13.0959 131.908 19.2399C132.996 27.8799 130.5 34.9199 124.548 40.9359C120.324 45.2239 115.14 47.9119 109.188 49.1279C107.46 49.4479 105.732 49.5119 104.068 49.7039ZM119.3 23.8479C119.236 23.0159 119.236 22.3759 119.108 21.7359C117.956 15.3999 112.132 11.8159 106.052 13.2239C100.1 14.5679 96.2601 18.3439 94.8521 24.3599C93.7001 29.3519 96.1321 34.4079 100.74 36.4559C104.26 37.9919 107.78 37.7999 111.172 36.0719C116.228 33.4479 118.98 29.3519 119.3 23.8479Z" fill="white"/>
</g>
<defs>
<clipPath id="clip0_2862_805">
<rect width="132.48" height="49.92" fill="white" transform="translate(0.260254 0.0400391)"/>
</clipPath>
</defs>
</svg>
