<svg width="214" height="64" viewBox="0 0 214 64" fill="none" xmlns="http://www.w3.org/2000/svg">
<mask id="mask0_2861_22" style="mask-type:luminance" maskUnits="userSpaceOnUse" x="0" y="0" width="214" height="64">
<path d="M213.6 0H0V63.5027H213.6V0Z" fill="white"/>
</mask>
<g mask="url(#mask0_2861_22)">
<path d="M187.986 63.0038C187.434 63.0038 186.918 62.8556 186.44 62.5962L181.543 59.6697C180.806 59.2621 181.175 59.1139 181.396 59.0398C182.39 58.7063 182.574 58.6322 183.605 58.0396C183.715 57.9655 183.862 58.0026 183.973 58.0767L187.728 60.3365C187.875 60.4106 188.059 60.4106 188.17 60.3365L202.86 51.7788C203.006 51.7047 203.082 51.5566 203.082 51.3714V34.2932C203.082 34.1081 203.006 33.9599 202.86 33.8858L188.17 25.3654C188.022 25.2912 187.838 25.2912 187.728 25.3654L173.038 33.8858C172.891 33.9599 172.818 34.145 172.818 34.2932V51.3714C172.818 51.5196 172.891 51.7047 173.038 51.7788L177.051 54.1128C179.223 55.2241 180.586 53.9275 180.586 52.6309V35.7751C180.586 35.5529 180.77 35.3306 181.028 35.3306H182.906C183.126 35.3306 183.347 35.5158 183.347 35.7751V52.6309C183.347 55.5576 181.764 57.2616 179.002 57.2616C178.156 57.2616 177.494 57.2616 175.615 56.3356L171.75 54.1128C170.793 53.557 170.203 52.5198 170.203 51.4083V34.3304C170.203 33.2189 170.793 32.1817 171.75 31.6259L186.44 23.0685C187.36 22.5498 188.612 22.5498 189.532 23.0685L204.222 31.6259C205.179 32.1817 205.768 33.2189 205.768 34.3304V51.4083C205.768 52.5198 205.179 53.557 204.222 54.1128L189.532 62.6702C189.09 62.8556 188.538 63.0038 187.986 63.0038Z" fill="#5FA04E"/>
<path d="M192.552 51.26C186.108 51.26 184.782 48.2963 184.782 45.7772C184.782 45.5549 184.966 45.3326 185.224 45.3326H187.138C187.36 45.3326 187.544 45.4809 187.544 45.7031C187.838 47.6665 188.685 48.6298 192.588 48.6298C195.681 48.6298 197.006 47.9259 197.006 46.2589C197.006 45.2957 196.637 44.5918 191.814 44.1101C187.802 43.7025 185.298 42.8135 185.298 39.5905C185.298 36.5899 187.802 34.8116 191.998 34.8116C196.712 34.8116 199.031 36.4417 199.326 39.9981C199.326 40.1093 199.289 40.2203 199.216 40.3315C199.141 40.4056 199.031 40.4797 198.919 40.4797H196.968C196.786 40.4797 196.601 40.3315 196.564 40.1462C196.122 38.1087 194.98 37.442 191.962 37.442C188.574 37.442 188.17 38.6273 188.17 39.5164C188.17 40.5907 188.648 40.9242 193.214 41.5169C197.742 42.1096 199.878 42.9617 199.878 46.1476C199.878 49.4076 197.19 51.26 192.552 51.26Z" fill="#5FA04E"/>
<path d="M213.76 33.3297C213.76 34.8857 212.47 36.1823 210.923 36.1823C209.378 36.1823 208.089 34.9227 208.089 33.3297C208.089 31.6998 209.414 30.4773 210.923 30.4773C212.434 30.4773 213.76 31.7367 213.76 33.3297ZM208.531 33.3297C208.531 34.6635 209.599 35.7378 210.886 35.7378C212.213 35.7378 213.281 34.6263 213.281 33.3297C213.281 31.9961 212.213 30.9589 210.886 30.9589C209.636 30.9589 208.531 31.9961 208.531 33.3297ZM209.857 31.7367H210.962C211.33 31.7367 212.066 31.7367 212.066 32.5888C212.066 33.1815 211.697 33.2927 211.475 33.3668C211.918 33.4038 211.954 33.7003 211.991 34.1077C212.028 34.3671 212.066 34.8116 212.139 34.9598H211.475C211.475 34.8116 211.366 33.9967 211.366 33.9595C211.33 33.7744 211.256 33.7003 211.035 33.7003H210.482V34.9967H209.857V31.7367ZM210.446 33.1446H210.923C211.33 33.1446 211.402 32.8483 211.402 32.7C211.402 32.2555 211.108 32.2555 210.923 32.2555H210.41V33.1446H210.446Z" fill="#5FA04E"/>
<path fill-rule="evenodd" clip-rule="evenodd" d="M34.939 33.5631C34.939 32.8963 34.5709 32.2667 33.9818 31.9332L18.4083 22.8569C18.1506 22.7088 17.8561 22.6347 17.5615 22.5977C17.5247 22.5977 17.4143 22.5977 17.4143 22.5977C17.1198 22.5977 16.8252 22.7088 16.5675 22.8569L0.957232 31.8961C0.368167 32.2296 0 32.8594 0 33.5631L0.0368167 57.8652C0.0368167 58.1987 0.220901 58.532 0.515434 58.6801C0.809968 58.8655 1.17814 58.8655 1.43586 58.6801L10.7137 53.3456C11.3027 53.0122 11.6709 52.3825 11.6709 51.7157V40.3425C11.6709 39.6757 12.039 39.0459 12.6282 38.7126L16.5675 36.4157C16.8621 36.2304 17.1934 36.1563 17.5247 36.1563C17.8561 36.1563 18.1874 36.2304 18.4452 36.4157L22.3845 38.7126C22.9735 39.0459 23.3418 39.6757 23.3418 40.3425V51.7157C23.3418 52.3825 23.71 53.0122 24.299 53.3456L33.5033 58.6801C33.7977 58.8655 34.1658 58.8655 34.4604 58.6801C34.755 58.532 34.939 58.1987 34.939 57.8652V33.5631Z" fill="white"/>
<path fill-rule="evenodd" clip-rule="evenodd" d="M109.972 0.111138C109.677 -0.0370458 109.309 -0.0370458 109.051 0.111138C108.757 0.296365 108.573 0.592732 108.573 0.926144V25.0058C108.573 25.2281 108.462 25.4503 108.241 25.5987C108.02 25.7098 107.799 25.7098 107.578 25.5987L103.676 23.3388C103.087 23.0055 102.387 23.0055 101.798 23.3388L86.188 32.415C85.5992 32.7486 85.2312 33.3782 85.2312 34.045V52.1603C85.2312 52.8274 85.5992 53.457 86.188 53.7905L101.798 62.8667C102.387 63.2 103.087 63.2 103.676 62.8667L119.286 53.7905C119.875 53.457 120.243 52.8274 120.243 52.1603V7.00166C120.243 6.29778 119.875 5.668 119.286 5.33459L109.972 0.111138ZM108.536 46.1961C108.536 46.3812 108.462 46.5294 108.315 46.6035L102.976 49.7155C102.829 49.7896 102.645 49.7896 102.498 49.7155L97.1592 46.6035C97.012 46.5294 96.9384 46.3442 96.9384 46.1961V39.9725C96.9384 39.7871 97.012 39.639 97.1592 39.5649L102.498 36.453C102.645 36.379 102.829 36.379 102.976 36.453L108.315 39.5649C108.462 39.639 108.536 39.8242 108.536 39.9725V46.1961Z" fill="white"/>
<path fill-rule="evenodd" clip-rule="evenodd" d="M161.918 39.8241C162.508 39.4906 162.839 38.861 162.839 38.194V33.7855C162.839 33.1188 162.471 32.489 161.918 32.1557L146.418 23.1166C145.83 22.783 145.13 22.783 144.541 23.1166L128.931 32.1926C128.342 32.5261 127.974 33.1559 127.974 33.8227V51.9381C127.974 52.6049 128.342 53.2347 128.931 53.568L144.43 62.459C145.02 62.7924 145.719 62.7924 146.271 62.459L155.66 57.1986C155.954 57.0505 156.138 56.717 156.138 56.3834C156.138 56.0502 155.954 55.7167 155.66 55.5685L139.976 46.4922C139.682 46.3071 139.498 46.0108 139.498 45.6773V40.0094C139.498 39.6759 139.682 39.3424 139.976 39.1942L144.873 36.3788C145.167 36.1937 145.535 36.1937 145.83 36.3788L150.726 39.1942C151.021 39.3796 151.205 39.6759 151.205 40.0094V44.4548C151.205 44.7882 151.389 45.1215 151.684 45.2698C151.978 45.455 152.346 45.455 152.641 45.2698L161.918 39.8241Z" fill="white"/>
<path fill-rule="evenodd" clip-rule="evenodd" d="M145.241 38.9724C145.351 38.8982 145.499 38.8982 145.61 38.9724L148.591 40.7135C148.702 40.7876 148.775 40.8988 148.775 41.047V44.5292C148.775 44.6774 148.702 44.7886 148.591 44.8627L145.61 46.6038C145.499 46.6779 145.351 46.6779 145.241 46.6038L142.259 44.8627C142.149 44.7886 142.075 44.6774 142.075 44.5292V41.047C142.075 40.8988 142.149 40.7876 142.259 40.7135L145.241 38.9724Z" fill="#5FA04E"/>
<path d="M61.0409 23.1906C60.4517 22.8573 59.7522 22.8573 59.1632 23.1906L43.6633 32.1928C43.0743 32.5263 42.7429 33.1559 42.7429 33.8229V51.864C42.7429 52.531 43.1111 53.1606 43.6633 53.4941L59.1632 62.4963C59.7522 62.8295 60.4517 62.8295 61.0409 62.4963L76.5406 53.4941C77.1298 53.1606 77.461 52.531 77.461 51.864V33.8229C77.461 33.1559 77.0929 32.5263 76.5406 32.1928L61.0409 23.1906Z" fill="url(#paint0_linear_2861_22)"/>
<path d="M76.5777 32.1928L61.0043 23.1906C60.8571 23.1165 60.673 23.0424 60.5258 23.0054L43.0746 53.0495C43.2218 53.2346 43.406 53.3829 43.5899 53.4941L59.1635 62.4962C59.6054 62.7554 60.1206 62.8295 60.5992 62.6814L76.9827 32.5262C76.8723 32.3781 76.725 32.2669 76.5777 32.1928Z" fill="url(#paint1_linear_2861_22)"/>
<path d="M76.5779 53.4935C77.0198 53.2342 77.3511 52.7897 77.4983 52.308L60.4521 22.9678C60.0104 22.8938 59.5317 22.9306 59.1268 23.1901L43.6637 32.1551L60.3416 62.755C60.5625 62.7178 60.8204 62.6437 61.0413 62.5327L76.5779 53.4935Z" fill="url(#paint2_linear_2861_22)"/>
</g>
<defs>
<linearGradient id="paint0_linear_2861_22" x1="66.4146" y1="29.8951" x2="52.2596" y2="58.5926" gradientUnits="userSpaceOnUse">
<stop stop-color="#3F873F"/>
<stop offset="0.3296" stop-color="#3F8B3D"/>
<stop offset="0.6367" stop-color="#3E9638"/>
<stop offset="0.9341" stop-color="#3DA92E"/>
<stop offset="1" stop-color="#3DAE2B"/>
</linearGradient>
<linearGradient id="paint1_linear_2861_22" x1="57.7466" y1="44.9501" x2="97.2416" y2="15.9496" gradientUnits="userSpaceOnUse">
<stop offset="0.1376" stop-color="#3F873F"/>
<stop offset="0.4016" stop-color="#52A044"/>
<stop offset="0.7129" stop-color="#64B749"/>
<stop offset="0.9081" stop-color="#6ABF4B"/>
</linearGradient>
<linearGradient id="paint2_linear_2861_22" x1="42.1751" y1="42.837" x2="78.0408" y2="42.837" gradientUnits="userSpaceOnUse">
<stop offset="0.0919165" stop-color="#6ABF4B"/>
<stop offset="0.2871" stop-color="#64B749"/>
<stop offset="0.5984" stop-color="#52A044"/>
<stop offset="0.8624" stop-color="#3F873F"/>
</linearGradient>
</defs>
</svg>
