<svg width="90" height="32" viewBox="0 0 90 32" fill="none" xmlns="http://www.w3.org/2000/svg">
<g clip-path="url(#clip0_2862_715)">
<path d="M89.0823 15.9996V20.1131H81.782V22.0116H85.466C87.4385 22.0116 89.5386 23.4781 89.664 25.9781L89.67 26.2155V27.7976C89.5821 30.8056 87.1268 31.9366 85.5984 31.9988L85.466 32.0016H78.0753V27.9107L85.5564 27.8881V25.8991L84.3663 25.8999L84.0194 25.9007L83.9348 25.901L83.8072 25.9017L83.7624 25.9021L83.7067 25.9029L83.6903 25.9037C83.6908 25.9041 83.7035 25.9046 83.7246 25.905L83.7768 25.9058C83.8074 25.9062 83.8437 25.9066 83.882 25.9069L83.9602 25.9076L83.8048 25.9071C83.4904 25.9056 82.9523 25.903 82.0758 25.8991C80.3005 25.8991 77.9939 24.5602 77.8558 21.9442L77.8493 21.6952V20.2713C77.8493 17.5731 80.1275 16.0884 81.9147 16.0034L82.0758 15.9996H89.0823ZM70.3907 15.9996V27.8655H76.561V32.0016H65.8252V15.9996H70.3907ZM63.9492 15.9996V32.0016H59.3611V15.9996H63.9492ZM53.1456 15.9996C54.2034 15.9996 57.1949 16.7301 57.3438 19.9508L57.3495 20.2035V32.0016H53.0779V29.1763H48.9417V32.0016H44.5344V20.2035C44.5344 18.8851 45.5385 16.1566 48.4813 16.0061L48.7383 15.9996H53.1456ZM28.9985 15.9968L37.5786 15.9974C37.758 16.0171 42.332 16.5677 42.332 21.5412C42.332 26.5148 38.5563 26.936 38.4083 26.9506L38.4038 26.951L43.4095 32.0016H37.0345L33.3083 28.1407V32.0016H28.9985V15.9968ZM51.4171 13.2997L51.4505 13.3326C51.4505 13.3326 51.0663 13.6038 50.6595 13.9428C37.8217 4.45013 29.9789 8.92526 27.5154 10.1231C16.3275 16.366 19.5606 31.691 19.6264 31.9969L19.6274 32.0016H1.77206C1.77206 32.0016 2.45009 25.3115 7.19644 17.4009C11.9428 9.4903 20.0342 3.50086 26.6113 2.91321C39.2929 1.64286 50.7223 12.6195 51.4171 13.2997ZM20.3054 27.4812L22.7464 28.3627C22.8594 29.2479 23.0195 30.0861 23.1874 30.851L23.2888 31.3009L20.5766 30.329C20.4636 29.651 20.3506 28.6791 20.3054 27.4812ZM51.8121 19.8193H50.2978C49.1698 19.8193 48.9647 20.4093 48.9274 20.6239L48.9202 20.6802L48.9193 20.6954L48.9191 24.6108H53.0552L53.0549 20.6943C53.05 20.6148 52.9716 19.8193 51.8121 19.8193ZM1.32001 20.1583L3.91922 21.1076C3.6028 21.8393 3.19986 22.7787 2.90723 23.5169L2.78912 23.8198L0.189941 22.8705C0.415958 22.2602 0.890576 21.1302 1.32001 20.1583ZM36.7651 20.0148H33.3083V23.6737H36.7427C36.7427 23.6737 37.7304 23.2921 37.7304 21.833C37.7304 20.374 36.7651 20.0148 36.7651 20.0148ZM21.3225 19.2542L22.9498 20.5425C22.769 21.2477 22.6316 21.9529 22.5376 22.658L22.4752 23.1869L20.6444 21.7404C20.8253 20.9267 21.0287 20.0905 21.3225 19.2542ZM25.323 12.9484L26.3401 14.4853C25.9423 14.9011 25.5734 15.317 25.2451 15.756L25.0066 16.09L23.9217 14.4627C24.3285 13.9428 24.8032 13.423 25.323 12.9484ZM9.1402 9.60331L10.7449 11.0046C10.3381 11.4284 9.94398 11.8776 9.57211 12.3332L9.20801 12.7901L7.46768 11.2984C7.98752 10.7334 8.55256 10.1683 9.1402 9.60331ZM31.5385 9.5129L32.0357 11.0046C31.5113 11.1673 30.987 11.3735 30.4626 11.6114L30.0693 11.7957L29.5495 10.2362C30.1145 9.98754 30.77 9.73892 31.5385 9.5129ZM36.8272 8.97046C37.4058 9.00662 37.9989 9.07172 38.6064 9.17731L39.0648 9.26428L38.9744 10.6656C38.3777 10.539 37.781 10.4558 37.1844 10.4161L36.7368 10.3944L36.8272 8.97046ZM18.2713 2.7324L19.2884 4.29192C18.8476 4.51228 18.4196 4.75808 17.9852 5.01976L17.548 5.28639L16.5083 3.70427C17.1186 3.34265 17.7062 3.02622 18.2713 2.7324ZM36.8724 1.87354C38.2172 2.25777 38.796 2.52103 39.0275 2.6443L39.0648 2.6646L38.9744 4.17891C38.4922 3.98303 38.0101 3.79719 37.5212 3.6214L36.782 3.36525L36.8724 1.87354ZM28.2386 0.540039L28.6906 1.91874H28.4646C27.973 1.91874 27.4815 1.93145 26.9899 1.96642L26.4983 2.00915L26.0688 0.675649C26.8147 0.585242 27.538 0.540039 28.2386 0.540039Z" fill="#D30001"/>
</g>
<defs>
<clipPath id="clip0_2862_715">
<rect width="90" height="32" fill="white"/>
</clipPath>
</defs>
</svg>
